<svg id="Layer_1" data-name="Layer 1" xmlns="http://www.w3.org/2000/svg" viewBox="0 0 200 200"><title>icon</title><path d="M28.73,66.33c-3.16,0-6,0-8.91,0-5-.08-8.92-3.49-9-8.43a198.76,198.76,0,0,1,.31-22.11C12.22,23,23.71,12.6,36.51,12.5c20.13-.17,40.25-.07,60.38-.08q33.11,0,66.21,0c14.19,0,25.25,9.43,27.21,23.45.54,3.88.22,7.9.26,11.85,0,3.22,0,6.44,0,9.66a8.88,8.88,0,0,1-9,8.93c-2.93.05-5.87,0-9,0v3q0,47.9,0,95.79A26.69,26.69,0,0,1,151,191.71a30.49,30.49,0,0,1-6.19.59q-44.07,0-88.14,0c-16.22,0-27.9-11.72-27.9-27.92V66.33Zm17.94.11v97.63c0,6.83,3.43,10.26,10.25,10.26h87.53c6.73,0,10.27-3.54,10.27-10.3V66.44ZM28.73,48.22h144V40.64c0-6.77-3.54-10.33-10.27-10.33H38.85a17.5,17.5,0,0,0-2.8.2,8.64,8.64,0,0,0-7.27,7.56C28.54,41.4,28.73,44.75,28.73,48.22Z"/><path d="M136.6,120.26c0,9,0,18.1,0,27.15A8.91,8.91,0,0,1,119.16,150a13.25,13.25,0,0,1-.48-3.76q0-25.95,0-51.88c0-6.08,3.69-10,9.17-9.94a8.74,8.74,0,0,1,8.75,8.87C136.63,102.3,136.6,111.28,136.6,120.26Z"/><path d="M82.63,120.42c0,9,0,18,0,27a8.93,8.93,0,0,1-17.38,2.87,12.22,12.22,0,0,1-.56-3.75q-.06-26.25,0-52.49c0-4.58,2.44-8,6.36-9.21A8.57,8.57,0,0,1,81,88.4a11.81,11.81,0,0,1,1.53,5.48C82.72,102.72,82.63,111.57,82.63,120.42Z"/></svg>
