<svg id="Layer_1" data-name="Layer 1" xmlns="http://www.w3.org/2000/svg" viewBox="0 0 200 200"><title>3140_icon</title><path d="M164.28,161.35,175.8,150a8.69,8.69,0,0,1,8.26-2.56,9,9,0,0,1,4.49,15.25c-5.52,5.56-11.07,11.08-16.61,16.62-3.33,3.33-6.65,6.68-10,10-4,4-9.28,4-13.29.07q-13.31-13.2-26.49-26.5c-3.85-3.87-3.85-9.43-.14-13s9.1-3.4,12.93.37,7.43,7.28,11.34,11.11v-2.06q0-68.53,0-137c0-3,.79-5.65,3.11-7.63a8.56,8.56,0,0,1,9.37-1.48c3.47,1.43,5.19,4.21,5.5,7.9.05.55,0,1.1,0,1.64V161.35Z"/><path d="M74.43,30.23H20.69A8.94,8.94,0,0,1,19.4,12.4a10.88,10.88,0,0,1,1.14-.06q53.75,0,107.47,0a8.79,8.79,0,0,1,9.15,7.72,8.94,8.94,0,0,1-8,10.11c-1.09.08-2.19,0-3.29.05Z"/><path d="M65.39,84.23c-14.68,0-29.36,0-44,0-3.66,0-6.7-1.11-8.65-4.33A8.47,8.47,0,0,1,12.47,71a8.25,8.25,0,0,1,7.59-4.65q45.27,0,90.54,0a8.92,8.92,0,0,1,.47,17.8c-.82.07-1.64.08-2.46.08Z"/><path d="M56.37,120.28c11.94,0,23.88,0,35.82,0a8.92,8.92,0,0,1,8,13.14c-1.8,3.37-4.77,4.79-8.53,4.79H21a13.48,13.48,0,0,1-1.8-.1,8.94,8.94,0,0,1,1-17.81C32.27,120.25,44.32,120.28,56.37,120.28Z"/><path d="M47.32,192.21c-9,0-18,0-26.95,0a8.95,8.95,0,0,1-2.9-17.43,9.9,9.9,0,0,1,3.05-.51q26.79,0,53.58,0A9,9,0,0,1,81.17,189a8.83,8.83,0,0,1-7.23,3.25Z"/></svg>
