<svg id="Layer_1" data-name="Layer 1" xmlns="http://www.w3.org/2000/svg" viewBox="0 0 200 200"><title>3140_icon</title><path d="M73.51,141c-.45.42-.84.77-1.2,1.13L38.44,176c-4.45,4.46-8.85,9-13.35,13.4a9,9,0,0,1-15-3.49,8.71,8.71,0,0,1,2.44-9.36l46.07-46c.74-.74,1.56-1.39,2.34-2.09C47.85,111.05,43,91.86,47,70.75,50.27,52.82,59.42,38.26,73.83,27.1c28.23-21.85,69.06-19.3,94.22,5.78,25.77,25.7,28.76,66.22,7,94.63a71.85,71.85,0,0,1-29.62,23.06A71.86,71.86,0,0,1,73.51,141Zm-10-56.88a54.22,54.22,0,0,0,53.32,54.13c29.57.3,54.48-23.34,54.7-53.32a54,54,0,1,0-108-.81Z"/></svg>
