<svg id="Layer_1" data-name="Layer 1" xmlns="http://www.w3.org/2000/svg" viewBox="0 0 200 200"><title>icon</title><path d="M190.12,38.24a25.77,25.77,0,0,1-7.72,17.62q-52.86,53-105.8,105.8A12.81,12.81,0,0,1,73.38,164Q48.23,176.57,23,189a8.71,8.71,0,0,1-10.21-1.48A8.94,8.94,0,0,1,11.14,177c4.34-8.83,8.74-17.63,13.11-26.45,3.77-7.61,7.51-15.25,11.35-22.83a15.3,15.3,0,0,1,2.77-3.89q52.94-53,105.93-106C152.14,10,163.59,8,174,12.37,183.62,16.4,190.12,26.36,190.12,38.24ZM126.17,61.61c-3.83,3.75-7.69,7.46-11.48,11.26q-30.87,31-61.69,62a11.65,11.65,0,0,0-2.09,2.89c-3.59,7.11-7.11,14.26-10.64,21.4-.25.5-.41,1-.7,1.79a5.53,5.53,0,0,0,1-.26q11.32-5.86,22.62-11.76a8.76,8.76,0,0,0,2.06-1.58q36.06-35.87,72.09-71.77c.49-.5.95-1,1.34-1.45ZM151.68,61c-.07,0,.09,0,.18-.06,5.9-5.83,11.91-11.56,17.66-17.54a9,9,0,0,0-.68-12.8,9.12,9.12,0,0,0-12.84.43c-2.26,2.29-4.5,4.58-6.75,6.88L139,48.46Z"/><path d="M140.51,190.11c-13.27,0-26.54,0-39.81,0-5.9,0-10-4.19-9.58-9.71a8.9,8.9,0,0,1,9-8.25c3.69,0,7.37,0,11.06,0q34.58,0,69.15,0c5.64,0,9.6,3.88,9.51,9.19-.09,5.06-4.06,8.76-9.54,8.77C167.05,190.13,153.78,190.11,140.51,190.11Z"/></svg>
