<svg id="Layer_1" data-name="Layer 1" xmlns="http://www.w3.org/2000/svg" viewBox="0 0 200 200"><defs><style>.cls-1{fill:#fff;}</style></defs><title>icon</title><path class="cls-1" d="M33.67,95.26H166.06c.95,10-1,19.51-3.42,28.9-8.17,31.26-26.82,53.51-57.27,65.11a16.12,16.12,0,0,1-10.58,0c-33.32-12.64-51.93-37.59-58.95-71.88-1-5.1-1.53-10.32-2.13-15.5A62.54,62.54,0,0,1,33.67,95.26Z"/><path class="cls-1" d="M109.78,34.34c13.06,0,24.49-.13,35.92,0,8.51.13,16.73,1.51,23.87,6.76,9.63,7.07,14.43,16.68,15,28.44.39,7.78-4.4,12.86-12.26,12.87q-72.27.1-144.56,0c-7.89,0-12.41-4.88-12.33-12.8.21-20.1,16.19-35.09,37.78-35.29,11.46-.11,22.91-.14,34.37,0,3.28.05,4.43-1.28,5.74-4.15a95.85,95.85,0,0,1,9.32-16.57c3.15-4.34,7.72-4.45,11.56-1.55s4.58,7.37,1.7,12.1C114.11,27.19,112.32,30.15,109.78,34.34Z"/></svg>
